<?xml version="1.0" encoding="UTF-8"?>
<!DOCTYPE svg PUBLIC "-//W3C//DTD SVG 1.1//EN" "http://www.w3.org/Graphics/SVG/1.1/DTD/svg11.dtd">
<svg xmlns="http://www.w3.org/2000/svg" version="1.1" width="500px" height="500px" style="shape-rendering:geometricPrecision; text-rendering:geometricPrecision; image-rendering:optimizeQuality; fill-rule:evenodd; clip-rule:evenodd" xmlns:xlink="http://www.w3.org/1999/xlink">
<g><path style="opacity:1" fill="#40e0d0" d="M -0.5,-0.5 C 166.167,-0.5 332.833,-0.5 499.5,-0.5C 499.5,166.167 499.5,332.833 499.5,499.5C 332.833,499.5 166.167,499.5 -0.5,499.5C -0.5,332.833 -0.5,166.167 -0.5,-0.5 Z"/></g>
<g><path style="opacity:1" fill="#fdfefe" d="M 210.5,110.5 C 226.237,110.398 233.404,118.065 232,133.5C 231.108,136.952 229.442,139.952 227,142.5C 198.833,170.667 170.667,198.833 142.5,227C 134.577,233.387 126.243,234.054 117.5,229C 109.698,221.78 108.531,213.614 114,204.5C 143.833,174.667 173.667,144.833 203.5,115C 205.898,113.476 208.231,111.976 210.5,110.5 Z"/></g>
<g><path style="opacity:1" fill="#fdfefe" d="M 279.5,110.5 C 284.901,109.966 289.901,111.133 294.5,114C 324.667,144.167 354.833,174.333 385,204.5C 389.184,213.508 388.017,221.675 381.5,229C 373.223,233.97 365.223,233.636 357.5,228C 328.667,199.167 299.833,170.333 271,141.5C 262.684,127.953 265.518,117.619 279.5,110.5 Z"/></g>
<g><path style="opacity:1" fill="#fdfefe" d="M 123.5,266.5 C 130.147,265.592 136.147,267.092 141.5,271C 170.333,299.833 199.167,328.667 228,357.5C 234.616,367.386 233.783,376.552 225.5,385C 218.5,389.667 211.5,389.667 204.5,385C 174.333,354.833 144.167,324.667 114,294.5C 107.897,281.976 111.063,272.643 123.5,266.5 Z"/></g>
<g><path style="opacity:1" fill="#fdfefe" d="M 364.5,266.5 C 378.097,264.447 386.097,270.114 388.5,283.5C 388.239,287.45 387.072,291.117 385,294.5C 354.833,324.667 324.667,354.833 294.5,385C 275.3,391.457 266.133,384.624 267,364.5C 268.08,362.004 269.414,359.67 271,357.5C 299.833,328.667 328.667,299.833 357.5,271C 359.898,269.476 362.231,267.976 364.5,266.5 Z"/></g>
</svg>
